<svg id="Layer_1_1_" enable-background="new 0 0 64 64" height="512" viewBox="0 0 64 64" width="512" xmlns="http://www.w3.org/2000/svg"><path d="m43 33c-4.418 0-8 3.582-8 8v2h2c4.418 0 8-3.582 8-8v-2z" fill="#ffd45a"/><path d="m42 19c-4.418 0-8 3.582-8 8v2h2c4.418 0 8-3.582 8-8v-2z" fill="#ffd45a"/><path d="m59 27h-3.006c-.881 0-1.663-.576-1.909-1.422-.474-1.632-1.123-3.188-1.927-4.648-.426-.773-.282-1.734.342-2.359l2.127-2.127c.781-.781.781-2.047 0-2.828l-4.243-4.243c-.781-.781-2.047-.781-2.828 0l-2.127 2.127c-.624.624-1.585.768-2.359.342-1.46-.804-3.016-1.453-4.648-1.927-.846-.245-1.422-1.027-1.422-1.909v-3.006c0-1.105-.895-2-2-2h-6c-1.105 0-2 .895-2 2v3.006c0 .881-.576 1.663-1.422 1.909-1.632.474-3.188 1.123-4.648 1.927-.773.426-1.734.282-2.359-.342l-2.127-2.127c-.781-.781-2.047-.781-2.828 0l-4.243 4.243c-.781.781-.781 2.047 0 2.828l2.127 2.127c.624.624.768 1.585.342 2.359-.804 1.46-1.453 3.016-1.927 4.648-.245.846-1.027 1.422-1.909 1.422h-3.006c-1.105 0-2 .895-2 2v6c0 1.105.895 2 2 2h3.006c.881 0 1.663.576 1.909 1.422.474 1.632 1.123 3.188 1.927 4.648.426.773.282 1.734-.342 2.359l-2.127 2.127c-.781.781-.781 2.047 0 2.828l4.243 4.243c.781.781 2.047.781 2.828 0l2.127-2.127c.624-.624 1.585-.768 2.359-.342 1.46.804 3.016 1.453 4.648 1.927.846.245 1.422 1.027 1.422 1.909v3.006c0 1.105.895 2 2 2h6c1.105 0 2-.895 2-2v-3.006c0-.881.576-1.663 1.422-1.909 1.632-.474 3.188-1.123 4.648-1.927.773-.426 1.734-.282 2.359.342l2.127 2.127c.781.781 2.047.781 2.828 0l4.243-4.243c.781-.781.781-2.047 0-2.828l-2.127-2.127c-.624-.624-.768-1.585-.342-2.359.804-1.46 1.453-3.016 1.927-4.648.245-.846 1.027-1.422 1.909-1.422h3.006c1.105 0 2-.895 2-2v-6c0-1.105-.895-2-2-2zm-27 24c-10.493 0-19-8.507-19-19s8.507-19 19-19 19 8.507 19 19-8.507 19-19 19z" fill="#3449a3"/><path d="m14.165 23h-3.325-.84v2.165c0 3.87 1.246 7.442 3.34 10.365 3.236 4.517 8.515 7.47 14.495 7.47h4.165v-2-.165c0-9.85-7.985-17.835-17.835-17.835z" fill="#ffc112"/><g fill="#2a3b85"><path d="m9.915 38.422c.404 1.393.944 2.727 1.591 3.997.617-.624.759-1.579.335-2.349-.804-1.46-1.453-3.016-1.927-4.648-.244-.846-1.026-1.422-1.908-1.422h-3.006c-1.105 0-2-.895-2-2v3c0 1.105.895 2 2 2h3.006c.882 0 1.664.576 1.909 1.422z"/><path d="m35 58h-6c-1.105 0-2-.895-2-2v3c0 1.105.895 2 2 2h6c1.105 0 2-.895 2-2v-3c0 1.105-.895 2-2 2z"/><path d="m27 52.994c0-.881-.576-1.663-1.422-1.909-1.632-.474-3.188-1.123-4.648-1.927-.773-.426-1.734-.282-2.359.342l-2.127 2.127c-.781.781-2.047.781-2.828 0l-4.157-4.157-.086.086c-.781.781-.781 2.047 0 2.828l4.243 4.243c.781.781 2.047.781 2.828 0l2.127-2.127c.624-.624 1.585-.768 2.359-.342 1.46.804 3.016 1.453 4.648 1.927.846.245 1.422 1.027 1.422 1.909z"/><path d="m59 34h-3.006c-.881 0-1.663.576-1.909 1.422-.474 1.632-1.123 3.188-1.927 4.648-.424.77-.282 1.725.335 2.349.647-1.27 1.187-2.604 1.591-3.997.246-.846 1.028-1.422 1.91-1.422h3.006c1.105 0 2-.895 2-2v-3c0 1.105-.895 2-2 2z"/><path d="m54.542 47.471-4.157 4.157c-.781.781-2.047.781-2.828 0l-2.128-2.128c-.624-.624-1.585-.768-2.359-.342-1.46.804-3.016 1.453-4.648 1.927-.846.245-1.422 1.027-1.422 1.909v3c0-.881.576-1.663 1.422-1.909 1.632-.474 3.188-1.123 4.648-1.927.773-.426 1.734-.282 2.359.342l2.127 2.127c.781.781 2.047.781 2.828 0l4.243-4.243c.781-.781.781-2.047 0-2.828z"/></g><path d="m27.835 40c-5.98 0-11.259-2.953-14.495-7.47-1.942-2.711-3.141-5.983-3.307-9.53h-.033v2.165c0 3.87 1.246 7.442 3.34 10.365 3.236 4.517 8.515 7.47 14.495 7.47h4.165v-2-.165c0-.282-.029-.556-.042-.835z" fill="#e6ae10"/><path d="m25 30.75v-.25c0-1.758-1.308-3.204-3-3.449v-2.051h-2v2.051c-1.692.245-3 1.691-3 3.449 0 1.93 1.57 3.5 3.5 3.5h1c.827 0 1.5.673 1.5 1.5s-.673 1.5-1.5 1.5h-1c-.827 0-1.5-.673-1.5-1.5v-.25h-2v.25c0 1.758 1.308 3.204 3 3.449v2.051h2v-2.051c1.692-.245 3-1.691 3-3.449 0-1.93-1.57-3.5-3.5-3.5h-1c-.827 0-1.5-.673-1.5-1.5s.673-1.5 1.5-1.5h1c.827 0 1.5.673 1.5 1.5v.25z" fill="#fff5b8"/><path d="m33 43.586v-12.172l7.707-7.707-1.414-1.414-6.293 6.293v-6.586h-2v9 15 5h2v-4.586l6.707-6.707-1.414-1.414z" fill="#754b11"/><path d="m36.667 15h1.333c0 3.682-2.985 6.667-6.667 6.667h-1.333c0-3.682 2.985-6.667 6.667-6.667z" fill="#e8dfa7"/><path d="m27.333 16.333h-1.333c0 3.682 2.985 6.667 6.667 6.667h1.333c0-3.682-2.985-6.667-6.667-6.667z" fill="#fff5b8"/></svg>